<svg id="그룹_83" data-name="그룹 83" xmlns="http://www.w3.org/2000/svg" width="66.055" height="66.055" viewBox="0 0 66.055 66.055">
  <ellipse id="타원_2" data-name="타원 2" cx="33.028" cy="33.028" rx="33.028" ry="33.028" transform="translate(0 0)" fill="#c7c7c7"/>
  <path id="패스_9" data-name="패스 9" d="M142.714,11.017a9.029,9.029,0,0,1,.021,12.753l-.021.022-3.994,3.994a9.033,9.033,0,1,1-12.775-12.775l2.205-2.205a.95.95,0,0,1,1.622.63,10.95,10.95,0,0,0,.576,3.133.956.956,0,0,1-.225.987l-.778.778a4.279,4.279,0,1,0,6.013,6.09l3.994-3.993a4.278,4.278,0,0,0,0-6.052,4.45,4.45,0,0,0-.615-.509.953.953,0,0,1-.413-.749,2.367,2.367,0,0,1,.7-1.771l1.251-1.251a.955.955,0,0,1,1.223-.1,9.064,9.064,0,0,1,1.22,1.022Zm8.376-8.376a9.043,9.043,0,0,0-12.775,0l-3.994,3.994-.021.022a9.035,9.035,0,0,0,1.241,13.775.955.955,0,0,0,1.223-.1l1.251-1.251a2.367,2.367,0,0,0,.7-1.771.953.953,0,0,0-.413-.749,4.454,4.454,0,0,1-.615-.509,4.278,4.278,0,0,1,0-6.052L141.677,6a4.279,4.279,0,1,1,6.013,6.09l-.778.778a.957.957,0,0,0-.225.987,10.951,10.951,0,0,1,.576,3.133.95.95,0,0,0,1.622.63l2.205-2.205A9.043,9.043,0,0,0,151.09,2.641Z" transform="translate(-104.839 17.125)" fill="#fff"/>
</svg>
