<svg xmlns="http://www.w3.org/2000/svg" xmlns:xlink="http://www.w3.org/1999/xlink" width="60" height="60" viewBox="0 0 60 60">
    <defs>
        <path id="prefix__b" d="M5.451 2.552C8.074.851 10.851 0 13.782 0c4.397 0 10.072 2.552 14.469 2.552 2.93 0 5.854-.85 8.77-2.552L31.51 23.238c-3.053 1.53-5.918 2.294-8.595 2.294-4.016 0-10.507-2.51-14.593-2.51-2.725 0-5.499.837-8.321 2.51l5.451-22.98z"/>
        <path id="prefix__d" d="M29.274 16.194l-1.343 5.17c-1.154.48-2.365.865-3.632 1.151-1.268.287-2.511.46-3.732.516l1.32-5.084c1.123-.013 2.322-.184 3.599-.511 1.277-.328 2.54-.742 3.788-1.242zm-21.218-.788c1.139.107 2.253.265 3.342.475 1.09.21 2.176.475 3.259.796l-1.32 5.083c-1.094-.311-2.182-.571-3.264-.78-1.081-.208-2.194-.371-3.337-.49l1.32-5.084zm7.921-3.813c1.17.36 2.356.645 3.558.857 1.203.21 2.427.35 3.673.414l-1.32 5.083c-1.248-.04-2.475-.165-3.683-.378-1.207-.212-2.39-.51-3.548-.892l1.32-5.084zm-6.6-1.27l-1.32 5.083c-1.547-.082-2.94.024-4.179.318-1.24.293-2.532.822-3.878 1.588l1.32-5.083c1.155-.72 2.447-1.25 3.879-1.589 1.43-.338 2.823-.444 4.178-.318zm22.538-4.296l-1.343 5.17c-1.154.48-2.365.865-3.632 1.152-1.268.287-2.511.458-3.732.515l1.32-5.083c1.123-.014 2.322-.184 3.599-.512 1.277-.328 2.54-.742 3.788-1.242zm-21.218-.788c1.139.107 2.253.265 3.342.475 1.09.21 2.176.475 3.259.796l-1.32 5.083c-1.094-.311-2.182-.57-3.264-.779-1.082-.208-2.194-.372-3.337-.492l1.32-5.083zm7.935-3.864c1.169.36 2.355.645 3.558.856 1.202.211 2.427.35 3.672.415l-1.32 5.083c-1.248-.04-2.475-.166-3.682-.378-1.208-.212-2.39-.51-3.549-.893l1.32-5.083zM12.03.104l-1.32 5.083c-1.547-.081-2.94.025-4.179.318-1.239.293-2.531.823-3.878 1.589l1.32-5.084C5.13 1.29 6.423.76 7.854.422 9.284.083 10.677-.023 12.03.104z"/>
        <filter id="prefix__a" width="139%" height="144.4%" x="-19.5%" y="-22.2%" filterUnits="objectBoundingBox">
            <feOffset dx="1" dy="1" in="SourceAlpha" result="shadowOffsetOuter1"/>
            <feGaussianBlur in="shadowOffsetOuter1" result="shadowBlurOuter1" stdDeviation="1.5"/>
            <feColorMatrix in="shadowBlurOuter1" result="shadowMatrixOuter1" values="0 0 0 0 0.274509804 0 0 0 0 0.82745098 0 0 0 0 0.91372549 0 0 0 0.275267701 0"/>
            <feMerge>
                <feMergeNode in="shadowMatrixOuter1"/>
                <feMergeNode in="SourceGraphic"/>
            </feMerge>
        </filter>
        <rect id="prefix__f" width="2.191" height="35.05" x="4.381" y="0" rx="1.095"/>
    </defs>
    <g fill="none" fill-rule="evenodd" transform="translate(2.553 1.915)">
        <g filter="url(#prefix__a)" transform="translate(7.394 11.683)">
            <g transform="translate(2.819 .444)">
                <mask id="prefix__c" fill="#fff">
                    <use xlink:href="#prefix__b"/>
                </mask>
                <use fill="#46D3E9" xlink:href="#prefix__b"/>
                <path fill="#25C0D8" d="M19.852-4.453l4.744.038c1.794.015 3.245 1.466 3.26 3.26l.218 27.829c.014 1.814-1.446 3.297-3.26 3.311h-.053l-4.744-.038c-1.794-.015-3.245-1.466-3.26-3.26L16.54-1.142c-.015-1.814 1.445-3.297 3.26-3.311h.052z" mask="url(#prefix__c)" transform="rotate(14 22.307 12.766)"/>
                <path fill="#85E3F1" d="M6.258-5.71l1.917.017c1.793.015 3.243 1.465 3.258 3.258l.264 31.64c.015 1.815-1.444 3.298-3.258 3.313h-.056l-1.918-.016c-1.793-.016-3.242-1.466-3.257-3.259l-.264-31.64C2.929-4.21 4.387-5.694 6.202-5.71h.056z" mask="url(#prefix__c)" transform="rotate(15 7.32 13.404)"/>
                <path fill="#0AB0CA" d="M17.562 15.338c1.57.013 2.84 1.284 2.854 2.854l.092 11.098c.013 1.536-1.222 2.792-2.759 2.805h-.047c-1.57-.013-2.84-1.283-2.854-2.854l-.092-11.097c-.013-1.537 1.222-2.793 2.759-2.806h.047z" mask="url(#prefix__c)" transform="rotate(15 17.632 23.717)"/>
                <path fill="#C9EEF4" d="M12.455-6.552l.851.008c1.792.017 3.24 1.465 3.256 3.257l.09 10.18c.017 1.814-1.442 3.298-3.256 3.315h-.06l-.85-.008c-1.792-.017-3.24-1.465-3.256-3.257l-.09-10.18c-.016-1.814 1.442-3.298 3.256-3.315h.06z" mask="url(#prefix__c)" transform="rotate(16 12.896 1.828)"/>
            </g>
            <g transform="translate(5.372 1.669)">
                <mask id="prefix__e" fill="#fff">
                    <use xlink:href="#prefix__d"/>
                </mask>
                <use fill="#FFF" xlink:href="#prefix__d"/>
                <path fill="#D5F8FD" d="M17.4-5.684l4.895.023c1.803.008 3.263 1.468 3.27 3.27l.13 27.857c.008 1.815-1.457 3.293-3.272 3.301h-.03l-4.896-.023c-1.803-.008-3.262-1.468-3.27-3.27l-.129-27.857c-.008-1.815 1.456-3.293 3.271-3.301h.03z" mask="url(#prefix__e)" transform="rotate(14 19.896 11.541)"/>
                <path fill="#EBFCFF" d="M3.62-6.949l2.031.01c1.802.01 3.26 1.468 3.27 3.27l.155 31.675c.009 1.815-1.455 3.294-3.27 3.302h-.032l-2.03-.01c-1.802-.009-3.261-1.467-3.27-3.27L.32-3.646c-.01-1.815 1.455-3.293 3.27-3.302h.032z" mask="url(#prefix__e)" transform="rotate(15 4.697 12.18)"/>
                <path fill="#A7EEF9" d="M15.114 14.106c1.588.008 2.874 1.293 2.882 2.881l.054 11.038c.008 1.568-1.257 2.846-2.825 2.854h-.028c-1.589-.008-2.874-1.294-2.882-2.882l-.054-11.038c-.008-1.568 1.257-2.846 2.825-2.853h.028z" mask="url(#prefix__e)" transform="rotate(15 15.155 22.492)"/>
                <path fill="#F3FDFF" d="M8.764-6.957c1.191.007 2.156.971 2.162 2.163l.065 12.468c.006 1.175-.942 2.133-2.118 2.14h-.022C7.66 9.806 6.695 8.841 6.69 7.65L6.624-4.817c-.006-1.176.942-2.134 2.117-2.14h.023z" mask="url(#prefix__e)" transform="rotate(16 8.807 1.428)"/>
            </g>
            <g transform="translate(0 .092)">
                <mask id="prefix__g" fill="#fff">
                    <use xlink:href="#prefix__f"/>
                </mask>
                <use fill="#B88A61" fill-rule="nonzero" transform="rotate(13.8 5.477 17.525)" xlink:href="#prefix__f"/>
                <rect width="1.46" height="18.255" x="6.395" y=".155" fill="#D5AC86" fill-rule="nonzero" mask="url(#prefix__g)" rx=".73" transform="rotate(13.8 7.125 9.283)"/>
                <rect width="1.46" height="9.493" x="7.44" y=".282" fill="#F7DABF" fill-rule="nonzero" mask="url(#prefix__g)" rx=".73" transform="rotate(13.8 8.17 5.028)"/>
            </g>
        </g>
        <circle cx="51.48" cy="25.371" r="1.095" fill="#C9E9ED"/>
        <circle cx="1.826" cy="34.134" r="1.826" fill="#75D3E1"/>
        <circle cx="21.882" cy="7.846" r="1.826" fill="#75D3E1"/>
        <circle cx="42.717" cy="45.817" r="1.826" fill="#75D3E1"/>
        <circle cx="5.477" cy="26.831" r="1.095" fill="#C9E9ED"/>
        <circle cx="24.462" cy="50.929" r="1.095" fill="#C9E9ED"/>
        <circle cx="41.598" cy="1.095" r="1.095" fill="#C9E9ED"/>
        <path fill="#BE8FD7" d="M17.331 40.703L17.331 42.163 15.871 42.163 15.871 43.624 17.331 43.624 17.331 45.084 18.791 45.084 18.791 43.624 20.252 43.624 20.252 42.163 18.791 42.163 18.791 40.703zM52.186 32.308L52.186 33.769 50.726 33.769 50.726 35.229 52.186 35.229 52.186 36.689 53.647 36.689 53.647 35.229 55.107 35.229 55.107 33.769 53.647 33.769 53.647 32.308z"/>
    </g>
</svg>
